<mxfile host="65bd71144e">
    <diagram id="D_tdFQN9u5433XpUx6vt" name="Page-1">
        <mxGraphModel dx="902" dy="983" grid="1" gridSize="10" guides="1" tooltips="1" connect="1" arrows="1" fold="1" page="1" pageScale="1" pageWidth="850" pageHeight="1100" math="0" shadow="0">
            <root>
                <mxCell id="0"/>
                <mxCell id="1" parent="0"/>
                <mxCell id="6" value="" style="shape=singleArrow;direction=west;whiteSpace=wrap;html=1;rotation=-90;" vertex="1" parent="1">
                    <mxGeometry x="350" y="220" width="100" height="60" as="geometry"/>
                </mxCell>
                <mxCell id="11" value="" style="shape=singleArrow;direction=west;whiteSpace=wrap;html=1;rotation=-90;" vertex="1" parent="1">
                    <mxGeometry x="150" y="220" width="100" height="60" as="geometry"/>
                </mxCell>
                <mxCell id="12" value="" style="shape=singleArrow;direction=west;whiteSpace=wrap;html=1;rotation=-90;" vertex="1" parent="1">
                    <mxGeometry x="550" y="220" width="100" height="60" as="geometry"/>
                </mxCell>
                <mxCell id="19" value="" style="shape=singleArrow;direction=south;whiteSpace=wrap;html=1;" vertex="1" parent="1">
                    <mxGeometry x="170" y="410" width="60" height="100" as="geometry"/>
                </mxCell>
                <mxCell id="20" value="" style="shape=ext;double=1;rounded=1;whiteSpace=wrap;html=1;fontStyle=1" vertex="1" parent="1">
                    <mxGeometry x="120" y="740" width="160" height="80" as="geometry"/>
                </mxCell>
                <mxCell id="21" value="" style="image;sketch=0;aspect=fixed;html=1;points=[];align=center;fontSize=12;image=img/lib/mscae/Docker.svg;fontStyle=1" vertex="1" parent="1">
                    <mxGeometry x="175" y="770" width="50" height="41" as="geometry"/>
                </mxCell>
                <mxCell id="25" value="" style="verticalLabelPosition=bottom;html=1;verticalAlign=top;align=center;strokeColor=none;fillColor=#00BEF2;shape=mxgraph.azure.script_file;pointerEvents=1;" vertex="1" parent="1">
                    <mxGeometry x="370" y="90" width="60" height="70" as="geometry"/>
                </mxCell>
                <mxCell id="26" value="&lt;font style=&quot;font-size: 16px;&quot;&gt;dev-env.sh&lt;/font&gt;" style="text;html=1;align=center;verticalAlign=middle;resizable=0;points=[];autosize=1;strokeColor=none;fillColor=none;" vertex="1" parent="1">
                    <mxGeometry x="350" y="50" width="100" height="30" as="geometry"/>
                </mxCell>
                <mxCell id="27" value="start" style="label;whiteSpace=wrap;html=1;image=img/clipart/Gear_128x128.png" vertex="1" parent="1">
                    <mxGeometry x="130" y="315" width="140" height="60" as="geometry"/>
                </mxCell>
                <mxCell id="28" value="stop" style="label;whiteSpace=wrap;html=1;image=img/clipart/Gear_128x128.png" vertex="1" parent="1">
                    <mxGeometry x="330" y="315" width="140" height="60" as="geometry"/>
                </mxCell>
                <mxCell id="29" value="restart" style="label;whiteSpace=wrap;html=1;image=img/clipart/Gear_128x128.png" vertex="1" parent="1">
                    <mxGeometry x="530" y="315" width="140" height="60" as="geometry"/>
                </mxCell>
                <mxCell id="30" value="&lt;span&gt;&lt;u&gt;Build Image&lt;/u&gt;&lt;/span&gt;" style="text;html=1;align=center;verticalAlign=middle;resizable=0;points=[];autosize=1;strokeColor=none;fillColor=none;fontStyle=1" vertex="1" parent="1">
                    <mxGeometry x="155" y="740" width="90" height="30" as="geometry"/>
                </mxCell>
                <mxCell id="31" value="" style="shape=singleArrow;direction=south;whiteSpace=wrap;html=1;" vertex="1" parent="1">
                    <mxGeometry x="170" y="850" width="60" height="100" as="geometry"/>
                </mxCell>
                <mxCell id="33" value="" style="shape=ext;double=1;rounded=1;whiteSpace=wrap;html=1;" vertex="1" parent="1">
                    <mxGeometry x="100" y="970" width="200" height="110" as="geometry"/>
                </mxCell>
                <mxCell id="34" value="&lt;b&gt;&lt;u&gt;Deploy Containers&lt;/u&gt;&lt;/b&gt;" style="text;html=1;align=center;verticalAlign=middle;resizable=0;points=[];autosize=1;strokeColor=none;fillColor=none;" vertex="1" parent="1">
                    <mxGeometry x="135" y="970" width="130" height="30" as="geometry"/>
                </mxCell>
                <mxCell id="43" style="edgeStyle=none;html=1;exitX=0.5;exitY=1;exitDx=0;exitDy=0;exitPerimeter=0;" edge="1" parent="1" source="35" target="41">
                    <mxGeometry relative="1" as="geometry"/>
                </mxCell>
                <mxCell id="35" value="" style="outlineConnect=0;dashed=0;verticalLabelPosition=bottom;verticalAlign=top;align=center;html=1;shape=mxgraph.aws3.ec2_compute_container;fillColor=#F58534;gradientColor=none;" vertex="1" parent="1">
                    <mxGeometry x="120" y="1030" width="60" height="34.5" as="geometry"/>
                </mxCell>
                <mxCell id="36" value="" style="outlineConnect=0;dashed=0;verticalLabelPosition=bottom;verticalAlign=top;align=center;html=1;shape=mxgraph.aws3.ec2_compute_container;fillColor=#F58534;gradientColor=none;" vertex="1" parent="1">
                    <mxGeometry x="220" y="1030" width="60" height="34.5" as="geometry"/>
                </mxCell>
                <mxCell id="37" value="Container 1" style="text;html=1;align=center;verticalAlign=middle;resizable=0;points=[];autosize=1;strokeColor=none;fillColor=none;" vertex="1" parent="1">
                    <mxGeometry x="105" y="1000" width="90" height="30" as="geometry"/>
                </mxCell>
                <mxCell id="38" value="Container 2" style="text;html=1;align=center;verticalAlign=middle;resizable=0;points=[];autosize=1;strokeColor=none;fillColor=none;" vertex="1" parent="1">
                    <mxGeometry x="205" y="1000" width="90" height="30" as="geometry"/>
                </mxCell>
                <mxCell id="39" value="" style="verticalLabelPosition=bottom;aspect=fixed;html=1;shape=mxgraph.salesforce.web;" vertex="1" parent="1">
                    <mxGeometry x="120" y="1120" width="60" height="47.400000000000006" as="geometry"/>
                </mxCell>
                <mxCell id="40" value="" style="verticalLabelPosition=bottom;aspect=fixed;html=1;shape=mxgraph.salesforce.web;" vertex="1" parent="1">
                    <mxGeometry x="230" y="1120" width="60" height="47.400000000000006" as="geometry"/>
                </mxCell>
                <mxCell id="41" value="127.0.0.1:8081" style="text;html=1;align=center;verticalAlign=middle;resizable=0;points=[];autosize=1;strokeColor=none;fillColor=none;" vertex="1" parent="1">
                    <mxGeometry x="95" y="1090" width="100" height="30" as="geometry"/>
                </mxCell>
                <mxCell id="42" value="127.0.0.1:8082" style="text;html=1;align=center;verticalAlign=middle;resizable=0;points=[];autosize=1;strokeColor=none;fillColor=none;" vertex="1" parent="1">
                    <mxGeometry x="210" y="1090" width="100" height="30" as="geometry"/>
                </mxCell>
                <mxCell id="44" style="edgeStyle=none;html=1;exitX=0.5;exitY=1;exitDx=0;exitDy=0;exitPerimeter=0;entryX=0.428;entryY=0.013;entryDx=0;entryDy=0;entryPerimeter=0;" edge="1" parent="1" source="36" target="42">
                    <mxGeometry relative="1" as="geometry"/>
                </mxCell>
                <mxCell id="45" value="" style="shape=singleArrow;direction=south;whiteSpace=wrap;html=1;" vertex="1" parent="1">
                    <mxGeometry x="370" y="410" width="60" height="100" as="geometry"/>
                </mxCell>
                <mxCell id="46" value="" style="shape=ext;double=1;rounded=1;whiteSpace=wrap;html=1;" vertex="1" parent="1">
                    <mxGeometry x="310" y="530" width="180" height="100" as="geometry"/>
                </mxCell>
                <mxCell id="48" value="" style="outlineConnect=0;dashed=0;verticalLabelPosition=bottom;verticalAlign=top;align=center;html=1;shape=mxgraph.aws3.ec2_compute_container;fillColor=#F58534;gradientColor=none;" vertex="1" parent="1">
                    <mxGeometry x="330" y="582.75" width="60" height="34.5" as="geometry"/>
                </mxCell>
                <mxCell id="49" value="" style="outlineConnect=0;dashed=0;verticalLabelPosition=bottom;verticalAlign=top;align=center;html=1;shape=mxgraph.aws3.ec2_compute_container;fillColor=#F58534;gradientColor=none;" vertex="1" parent="1">
                    <mxGeometry x="410" y="581.5" width="60" height="34.5" as="geometry"/>
                </mxCell>
                <mxCell id="50" value="Container 1" style="text;html=1;align=center;verticalAlign=middle;resizable=0;points=[];autosize=1;strokeColor=none;fillColor=none;" vertex="1" parent="1">
                    <mxGeometry x="315" y="550" width="90" height="30" as="geometry"/>
                </mxCell>
                <mxCell id="51" value="Container 2" style="text;html=1;align=center;verticalAlign=middle;resizable=0;points=[];autosize=1;strokeColor=none;fillColor=none;" vertex="1" parent="1">
                    <mxGeometry x="395" y="550" width="90" height="30" as="geometry"/>
                </mxCell>
                <mxCell id="54" value="" style="shape=mxgraph.mockup.markup.redX;fillColor=#ff0000;html=1;shadow=0;whiteSpace=wrap;strokeColor=none;" vertex="1" parent="1">
                    <mxGeometry x="322.5" y="580" width="75" height="40" as="geometry"/>
                </mxCell>
                <mxCell id="55" value="" style="shape=mxgraph.mockup.markup.redX;fillColor=#ff0000;html=1;shadow=0;whiteSpace=wrap;strokeColor=none;" vertex="1" parent="1">
                    <mxGeometry x="402.5" y="580" width="75" height="40" as="geometry"/>
                </mxCell>
                <mxCell id="56" value="&lt;b&gt;&lt;u&gt;Remove container&lt;/u&gt;&lt;/b&gt;" style="text;html=1;align=center;verticalAlign=middle;resizable=0;points=[];autosize=1;strokeColor=none;fillColor=none;" vertex="1" parent="1">
                    <mxGeometry x="335" y="530" width="130" height="30" as="geometry"/>
                </mxCell>
                <mxCell id="57" value="" style="shape=singleArrow;direction=south;whiteSpace=wrap;html=1;" vertex="1" parent="1">
                    <mxGeometry x="570" y="400" width="60" height="100" as="geometry"/>
                </mxCell>
                <mxCell id="59" value="stop" style="label;whiteSpace=wrap;html=1;image=img/clipart/Gear_128x128.png" vertex="1" parent="1">
                    <mxGeometry x="132.5" y="530" width="140" height="60" as="geometry"/>
                </mxCell>
                <mxCell id="60" value="" style="shape=singleArrow;direction=south;whiteSpace=wrap;html=1;" vertex="1" parent="1">
                    <mxGeometry x="170" y="620" width="60" height="100" as="geometry"/>
                </mxCell>
                <mxCell id="61" value="stop" style="label;whiteSpace=wrap;html=1;image=img/clipart/Gear_128x128.png" vertex="1" parent="1">
                    <mxGeometry x="530" y="530" width="140" height="60" as="geometry"/>
                </mxCell>
                <mxCell id="62" value="" style="shape=singleArrow;direction=south;whiteSpace=wrap;html=1;" vertex="1" parent="1">
                    <mxGeometry x="570" y="620" width="60" height="100" as="geometry"/>
                </mxCell>
                <mxCell id="63" value="start" style="label;whiteSpace=wrap;html=1;image=img/clipart/Gear_128x128.png" vertex="1" parent="1">
                    <mxGeometry x="530" y="740" width="140" height="60" as="geometry"/>
                </mxCell>
            </root>
        </mxGraphModel>
    </diagram>
</mxfile>